<?xml version="1.0" ?><svg height="1024" preserveAspectRatio="xMidYMid meet" width="1024" xmlns="http://www.w3.org/2000/svg"><g><title/><rect fill="none" height="1026" id="canvas_background" width="1026" x="-1" y="-1"/></g><g><title/><g fill="#000000" id="svg_1" transform="translate(0,1024) scale(0.10000000149011612,-0.10000000149011612) "><path d="m4820,9439c-1036,-77 -1981,-503 -2723,-1228c-976,-952 -1444,-2300 -1271,-3654c216,-1693 1410,-3103 3050,-3602c1268,-386 2679,-157 3754,608c1321,941 2008,2502 1804,4100c-216,1693 -1410,3103 -3050,3602c-488,149 -1057,212 -1564,174zm1185,-2810c165,-23 325,-77 463,-156c374,-216 625,-568 683,-959l11,-72l53,19c176,62 411,46 580,-38c198,-99 364,-299 415,-499c24,-93 26,-238 5,-339c-8,-38 -36,-113 -61,-165c-41,-82 -61,-109 -148,-195c-109,-109 -192,-161 -331,-206c-65,-21 -90,-23 -365,-26c-162,-2 -690,0 -1173,4l-879,8l-19,24c-18,23 -19,57 -19,1250l0,1228l23,21c37,35 211,87 352,105c67,9 339,6 410,-4zm-1153,-326c20,-21 21,-42 46,-809l25,-787l-26,-331c-24,-310 -27,-332 -47,-348c-49,-39 -149,-33 -181,12c-15,21 -20,72 -35,343c-17,304 -17,353 0,1089c18,823 17,806 68,843c32,23 122,16 150,-12zm-613,-210c20,-17 21,-41 51,-703l31,-684l-32,-331c-23,-250 -35,-334 -46,-347c-34,-38 -142,-35 -167,5c-10,15 -22,122 -39,352l-24,330l23,615c13,338 23,643 23,678c1,84 19,102 100,102c41,0 65,-5 80,-17zm-614,-7c18,-13 22,-62 56,-697l37,-684l-37,-332c-22,-199 -42,-337 -50,-347c-30,-36 -135,-31 -151,7c-5,12 -23,168 -39,347l-30,325l29,635c16,349 30,654 30,678c0,58 25,82 88,82c27,0 57,-6 67,-14zm-612,-348c15,-11 23,-88 60,-524l43,-511l-43,-334c-39,-305 -45,-336 -65,-353c-26,-20 -92,-17 -113,6c-8,8 -27,143 -49,348l-37,335l35,486c20,267 36,495 36,507c0,11 7,28 16,36c19,19 93,21 117,4zm-605,-590c5,-7 32,-110 58,-230l48,-216l-48,-214c-27,-117 -52,-217 -56,-221c-12,-14 -91,-10 -106,5c-8,7 -33,107 -56,221l-41,207l43,220c31,161 47,223 59,230c23,14 87,12 99,-2z" fill="#ff3a00" id="svg_2"/></g></g></svg>